<?xml version="1.0" encoding="iso-8859-1"?>
<!-- Generator: Adobe Illustrator 19.1.0, SVG Export Plug-In . SVG Version: 6.00 Build 0)  -->
<svg version="1.1" id="Capa_1" xmlns="http://www.w3.org/2000/svg" xmlns:xlink="http://www.w3.org/1999/xlink" x="0px" y="0px"
	 viewBox="0 0 64.5 64.5" style="enable-background:new 0 0 64.5 64.5;" xml:space="preserve">
<g>
	<g id="group-1svg">
		<path id="path-1" style="fill:#E56A77;" d="M63.119,38.669c0,14.266-11.565,25.831-25.832,25.831
			c-14.266,0-25.832-11.565-25.832-25.831c0-14.267,11.566-25.832,25.832-25.832C51.554,12.837,63.119,24.402,63.119,38.669z"/>
		<path id="path-2" style="fill:#FF917B;" d="M55.259,38.669c0,9.925-8.047,17.971-17.972,17.971
			c-9.924,0-17.971-8.046-17.971-17.971c0-9.926,8.047-17.972,17.971-17.972C47.212,20.697,55.259,28.743,55.259,38.669z"/>
		<path id="path-3" d="M31.287,55.14c-10.736,0-19.471-8.735-19.471-19.471c0-10.737,8.735-19.472,19.471-19.472
			c10.737,0,19.472,8.735,19.472,19.472C50.759,46.405,42.024,55.14,31.287,55.14z M31.287,19.197
			c-9.083,0-16.471,7.389-16.471,16.472c0,9.082,7.388,16.471,16.471,16.471s16.472-7.389,16.472-16.471
			C47.759,26.586,40.37,19.197,31.287,19.197z"/>
		<path id="path-4" d="M31.287,63C16.216,63,3.955,50.739,3.955,35.669c0-15.071,12.261-27.332,27.332-27.332
			c15.072,0,27.332,12.261,27.332,27.332C58.619,50.739,46.359,63,31.287,63z M31.287,11.337c-13.417,0-24.332,10.915-24.332,24.332
			C6.955,49.085,17.87,60,31.287,60s24.332-10.915,24.332-24.331C55.619,22.252,44.704,11.337,31.287,11.337z"/>
		<path id="path-5" d="M30.575,44.04c-0.828,0-1.5-0.671-1.5-1.5V31.347l-1.626,2.087c-0.509,0.654-1.453,0.77-2.105,0.261
			c-0.653-0.509-0.77-1.451-0.262-2.105l4.31-5.532c0.394-0.505,1.066-0.704,1.671-0.496c0.605,0.208,1.012,0.778,1.012,1.419V42.54
			C32.075,43.369,31.404,44.04,30.575,44.04z"/>
		<path id="path-6" d="M36.075,44.54h-12c-0.828,0-1.5-0.671-1.5-1.5c0-0.828,0.672-1.5,1.5-1.5h12c0.829,0,1.5,0.672,1.5,1.5
			C37.575,43.869,36.904,44.54,36.075,44.54z"/>
		<path id="path-7" d="M47.635,17.169c-0.358,0-0.717-0.127-1.004-0.385c-0.615-0.554-0.665-1.503-0.111-2.118l9.484-10.538
			c0.557-0.617,1.503-0.665,2.119-0.112c0.616,0.555,0.665,1.503,0.112,2.119L48.75,16.673
			C48.453,17.002,48.045,17.169,47.635,17.169z"/>
		<path id="path-8" d="M36.604,11.337c-0.37,0-0.739-0.136-1.029-0.41c-0.603-0.568-0.63-1.518-0.062-2.12l7.868-8.336
			c0.569-0.603,1.519-0.63,2.12-0.061c0.603,0.568,0.63,1.518,0.062,2.12l-7.868,8.336C37.4,11.179,37.002,11.337,36.604,11.337z"/>
		<path id="path-9" d="M12.364,17.169c-0.41,0-0.818-0.167-1.115-0.496L1.765,6.135C1.211,5.519,1.261,4.571,1.876,4.016
			c0.616-0.552,1.563-0.505,2.119,0.112l9.485,10.538c0.553,0.615,0.504,1.564-0.112,2.118
			C13.081,17.042,12.723,17.169,12.364,17.169z"/>
		<path id="path-10" d="M23.396,11.337c-0.399,0-0.796-0.158-1.091-0.471L14.436,2.53c-0.569-0.602-0.541-1.552,0.061-2.12
			c0.601-0.568,1.551-0.542,2.12,0.06l7.87,8.337c0.568,0.602,0.541,1.552-0.062,2.12C24.136,11.201,23.766,11.337,23.396,11.337z"
			/>
	</g>
</g>
<g>
</g>
<g>
</g>
<g>
</g>
<g>
</g>
<g>
</g>
<g>
</g>
<g>
</g>
<g>
</g>
<g>
</g>
<g>
</g>
<g>
</g>
<g>
</g>
<g>
</g>
<g>
</g>
<g>
</g>
</svg>
